<?xml version="1.0" encoding="UTF-8" standalone="no"?>
<!DOCTYPE svg PUBLIC "-//W3C//DTD SVG 1.1//EN" "http://www.w3.org/Graphics/SVG/1.1/DTD/svg11.dtd">
<svg width="100%" height="100%" viewBox="0 0 1280 800" version="1.1" xmlns="http://www.w3.org/2000/svg" xmlns:xlink="http://www.w3.org/1999/xlink" xml:space="preserve" style="fill-rule:evenodd;clip-rule:evenodd;stroke-linejoin:round;stroke-miterlimit:1.41421;">
    <g transform="matrix(0.513708,0,0,0.513708,2.38101,-102.862)">
        <g transform="matrix(-12.6287,0,0,12.6928,9826.59,-3522.9)">
            <path d="M699.624,351.14C698.942,350.539 698.497,349.886 697.895,349.663C696.08,348.992 694.234,348.349 692.349,347.952C688.917,347.227 685.402,346.877 682.007,346.026C678.038,345.032 674.142,344.961 670.153,345.731C665.219,346.682 660.621,348.4 656.467,351.246C655.884,351.644 655.827,352.242 655.974,352.858C656.145,353.582 656.715,353.817 657.356,353.668C660.826,352.862 664.071,353.804 667.229,355.034C669.171,355.788 671.02,356.862 670.885,359.425C670.804,360.936 671.776,361.551 672.767,362.003C674.286,361.628 675.646,361.239 677.033,360.961C679.651,360.433 682.181,359.679 684.622,358.553C689.126,356.48 693.409,353.937 698.154,352.385C698.657,352.22 699.031,351.658 699.624,351.14M640.811,380.985C640.732,380.462 640.657,380.307 640.706,380.234C644.176,375.076 644.292,369.238 643.868,363.391C643.456,357.701 642.238,352.12 640.972,346.557C640.49,344.438 640.263,342.263 639.892,340.119C639.538,338.105 639.146,336.098 638.734,333.876C639.383,333.751 639.934,333.58 640.492,333.548C648.636,333.099 656.753,333.583 664.866,334.263C668.732,334.585 672.592,335.043 676.453,335.488C682.845,336.225 689.18,337.286 695.448,338.762C697.327,339.204 699.272,339.399 701.2,339.595C705.799,340.062 710.31,340.974 714.76,342.202C718.385,343.2 722.037,344.08 725.66,345.073C727.412,345.551 729.139,346.119 730.85,346.724C734.621,348.057 738.342,349.548 742.148,350.768C744.999,351.681 747.363,353.228 749.682,355.418C749.147,355.949 748.751,356.55 748.191,356.874C744.728,358.881 741.285,360.935 737.727,362.758C733.949,364.694 730.003,366.297 726.212,368.21C722.053,370.308 717.583,371.41 713.13,372.571C707.503,374.039 701.844,375.387 696.19,376.764C695.015,377.052 693.822,377.311 692.626,377.465C685.77,378.344 678.997,379.815 672.096,380.28C666.776,380.638 661.495,381.506 656.136,381.302C652.985,381.183 649.826,381.345 646.673,381.303C644.743,381.276 642.815,381.099 640.811,380.985" style="fill:rgb(100,170,199);"/>
        </g>
        <g transform="matrix(-12.6287,0,0,12.6928,9826.59,-3522.9)">
            <path d="M737.093,346.135C735.964,345.741 734.822,345.379 733.707,344.948C729.279,343.239 724.686,342.108 720.077,341.023C715.471,339.938 710.869,338.832 706.26,337.761C705.436,337.57 704.586,337.457 703.739,337.389C700.344,337.117 697.018,336.496 693.675,335.822C688.443,334.766 683.15,333.966 677.858,333.264C667.978,331.957 658.037,331.346 648.077,331.263C641.526,331.209 634.969,331.471 628.468,332.393C625.117,332.87 621.795,333.534 618.469,334.166C615.728,334.687 612.993,335.241 610.276,335.858C606.725,336.663 603.21,337.583 599.972,339.337C598.082,340.361 596.08,341.139 594.197,342.105C593.576,341.154 594.237,340.979 594.517,340.763C602.08,334.926 610.417,330.655 619.508,327.612C631.13,323.724 643.067,322.046 655.201,321.118C661.182,320.662 667.095,320.94 673.013,321.637C675.299,321.907 677.566,322.358 679.831,322.789C683.166,323.428 686.521,324.013 689.821,324.817C697.601,326.71 705.333,328.73 712.727,331.951C717.965,334.231 723.151,336.582 728.137,339.351C730.572,340.703 732.9,342.26 735.23,343.796C736.021,344.317 736.669,345.056 737.382,345.697C737.284,345.843 737.187,345.989 737.093,346.135" style="fill:rgb(70,142,171);"/>
        </g>
        <g transform="matrix(-12.6287,0,0,12.6928,9826.59,-3522.9)">
            <path d="M616.824,346.409C617.095,342.084 613.337,339.013 610,340.256C609.554,340.421 609.043,340.392 608.574,340.507C605.666,341.226 604.18,342.927 604.263,345.926C604.388,350.329 606.72,353.551 611.478,352.755C614.715,352.214 616.694,349.777 616.824,346.409M587.737,363.8C593.72,363.322 598.905,362.909 604.095,362.495C604.82,362.437 605.571,362.465 606.261,362.281C606.658,362.176 607.07,361.782 607.27,361.406C607.385,361.192 607.125,360.735 606.955,360.433C606.842,360.237 606.589,360.121 606.396,359.977C603.859,358.104 601.348,356.197 598.781,354.371C595.6,352.116 592.923,349.325 589.919,346.521C591.326,345.351 592.863,344.714 594.331,344.028C597.729,342.44 601.169,340.937 604.634,339.496C605.737,339.036 606.959,338.851 608.143,338.594C611.453,337.87 614.766,337.16 618.088,336.476C619.628,336.158 621.175,335.832 622.734,335.647C624.191,335.474 625.364,336.226 626.084,337.409C627.336,339.476 628.453,341.593 628.803,344.082C630,352.532 630.144,360.985 629.178,369.46C629.083,370.304 628.907,371.138 628.808,371.982C628.391,375.585 625.989,377.459 622.909,378.695C622.396,378.901 621.72,378.823 621.146,378.725C618.281,378.235 615.451,377.668 612.675,376.707C606.589,374.596 600.606,372.363 595.321,368.535C593.472,367.198 591.31,366.295 589.311,365.163C588.931,364.949 588.637,364.588 587.737,363.8" style="fill:rgb(100,170,199);"/>
        </g>
        <g transform="matrix(-12.6287,0,0,12.6928,9826.59,-3522.9)">
            <path d="M627.133,335.149C629.559,334.136 632.146,334.483 634.671,334.323C635.638,334.262 636.335,334.82 636.577,335.716C636.987,337.234 637.399,338.771 637.587,340.326C637.937,343.225 638.554,346.055 639.168,348.904C640.32,354.237 641.4,359.602 641.68,365.072C641.872,368.86 641.561,372.595 640.084,376.16C638.646,379.641 637.019,380.581 633.347,380.091C632.151,379.931 630.928,379.971 629.726,379.854C629.051,379.787 628.254,379.969 627.82,379.202C627.811,379.066 627.752,378.891 627.805,378.844C630.546,376.416 631.281,373.249 631.62,369.734C632.355,362.183 631.975,354.685 631.023,347.202C630.514,343.214 629.648,339.295 627.276,335.899C627.152,335.724 627.184,335.443 627.133,335.149" style="fill:rgb(79,161,194);"/>
        </g>
        <g transform="matrix(-12.6287,0,0,12.6928,9826.59,-3522.9)">
            <path d="M772.114,325.372C756.503,342.509 758.969,341.946 752.594,353.904C749.789,353.09 748.637,350.236 746.302,348.977C752.047,335.756 759.066,329.719 772.114,325.372" style="fill:rgb(70,142,171);"/>
        </g>
        <g transform="matrix(-12.6287,0,0,12.6928,9826.59,-3522.9)">
            <path d="M656.351,384.218C656.828,384.002 657.145,383.743 657.478,383.723C662.424,383.414 667.373,383.137 672.444,382.846C673.04,384.76 673.331,386.455 672.416,388.335C671.578,388.459 670.747,388.531 669.945,388.718C669.255,388.878 668.596,389.168 667.919,389.401C666.723,392.871 666.548,396.342 666.677,399.862C666.744,401.674 666.696,403.492 666.658,405.308C666.654,405.627 666.468,405.946 666.375,406.219C665.476,406.518 665.22,405.857 664.912,405.393C661.338,400.011 658.63,394.217 656.644,388.074C656.226,386.78 656.401,385.493 656.351,384.218" style="fill:rgb(100,170,199);"/>
        </g>
        <g transform="matrix(-12.6287,0,0,12.6928,9826.59,-3522.9)">
            <path d="M770.009,383.228C765.58,382.304 762.342,380.45 759.319,378.246C756.783,376.397 754.424,374.307 751.962,372.355C750.022,370.816 748.599,368.883 747.6,366.648C746.914,365.107 746.365,363.505 745.713,361.82C747.649,359.683 750.241,358.609 752.371,357.058C753.54,357.171 753.9,357.894 754.086,358.773C754.858,362.369 756.614,365.541 758.26,368.781C760.266,372.733 763.071,376.012 766.235,379.041C767.448,380.198 768.783,381.252 770.009,383.228" style="fill:rgb(70,142,171);"/>
        </g>
        <g transform="matrix(-12.6287,0,0,12.6928,9826.59,-3522.9)">
            <path d="M643.112,319.51C644.492,316.961 646.667,315.054 648.682,313.063C653.603,308.207 658.941,303.914 665.848,301.288C665.671,302.161 665.639,302.825 665.404,303.407C664.395,305.9 663.636,308.423 664.182,311.075C662.201,314.035 659.27,315.87 657.017,318.366C656.729,318.684 656.18,318.873 655.729,318.917C651.77,319.318 647.809,319.678 643.842,320.021C643.671,320.036 643.476,319.774 643.112,319.51" style="fill:rgb(70,142,171);"/>
        </g>
        <g transform="matrix(-12.6287,0,0,12.6928,9826.59,-3522.9)">
            <path d="M719.75,310.968C719.193,313.393 718.116,314.844 717.159,316.378C715.536,318.985 714.356,321.764 714.548,324.94C714.577,325.425 714.581,325.913 714.659,326.391C714.948,328.218 715.538,328.726 717.562,328.941C719.713,329.172 719.713,329.172 719.745,331.829C713.932,330.826 709.156,327.17 703.541,325.961C703.017,323.559 703.757,321.842 705.423,320.329C709.571,316.56 713.978,313.213 719.75,310.968" style="fill:rgb(100,170,199);"/>
        </g>
        <g transform="matrix(-12.6287,0,0,12.6928,9826.59,-3522.9)">
            <path d="M700.22,378.498C703.267,377.23 706.215,376.771 708.935,376.06C709.839,376.686 709.316,377.253 709.237,377.793C708.909,380.099 709.753,382.098 711.024,383.9C712.824,386.463 714.755,388.934 716.819,391.691C716.154,391.556 715.619,391.561 715.197,391.342C712.199,389.782 709.105,388.361 706.279,386.532C703.493,384.731 701.552,382.074 700.22,378.498" style="fill:rgb(100,170,199);"/>
        </g>
        <g transform="matrix(-12.6287,0,0,12.6928,9826.59,-3522.9)">
            <path d="M660.164,317.94C661.953,316.167 663.71,314.356 665.548,312.634C666.72,311.538 667.537,311.34 670.545,310.94C670.483,312.02 670.418,313.091 670.364,314.166C670.237,316.614 668.497,318.591 666.149,318.712C664.24,318.81 662.321,318.69 660.409,318.666C660.327,318.424 660.244,318.181 660.164,317.94" style="fill:rgb(70,142,171);"/>
        </g>
        <g transform="matrix(-12.6287,0,0,12.6928,9826.59,-3522.9)">
            <path d="M679.628,320.276C676.298,320.052 673.487,319.643 670.58,318.938C670.981,317.065 672.39,316.986 673.659,316.822C675.931,316.527 677.573,317.433 679.628,320.276" style="fill:rgb(70,142,171);"/>
        </g>
        <g transform="matrix(-12.6287,0,0,12.6928,9826.59,-3522.9)">
            <path d="M713.463,375.362C714.567,374.304 715.708,374.196 716.857,374.248C717.374,374.968 717.087,375.501 716.713,375.985C716.261,376.573 715.624,376.44 715.062,376.226C714.537,376.027 714.066,375.695 713.463,375.362" style="fill:rgb(100,170,199);"/>
        </g>
        <g transform="matrix(-12.6287,0,0,12.6928,9826.59,-3522.9)">
            <path d="M691.446,350.794C688.042,350.793 684.772,350.614 681.532,350.838C677.423,351.123 673.328,351.669 669.251,352.247C668.02,352.42 666.923,352.548 665.71,352.116C664.469,351.674 663.124,351.524 661.826,351.246C661.632,350.673 661.914,350.403 662.415,350.182C665.547,348.799 668.837,347.978 672.208,347.503C673.518,347.318 674.891,347.208 676.188,347.392C681.313,348.114 686.462,348.764 691.446,350.794" style="fill:rgb(169,198,209);"/>
        </g>
        <g transform="matrix(-12.6287,0,0,12.6928,9826.59,-3522.9)">
            <path d="M689.136,353.293C688.183,354.849 686.934,355.343 685.752,355.779C682.078,357.137 678.702,359.615 674.179,358.867C673.779,358.23 673.275,357.437 672.777,356.639C672.292,355.859 671.813,355.075 671.303,354.249C674.764,353.298 684.191,352.769 689.136,353.293" style="fill:rgb(169,198,209);"/>
        </g>
        <g transform="matrix(-12.6287,0,0,12.6928,9826.59,-3522.9)">
            <path d="M610.676,343.881C609.594,343.79 608.597,344.759 608.588,345.911C608.578,347.058 609.728,348.283 610.841,348.315C611.827,348.342 612.791,347.591 612.945,346.671C613.151,345.451 611.961,343.989 610.676,343.881M610.195,350.141C607.308,350.286 606.214,345.94 606.996,344.546C607.239,344.162 607.715,343.015 609.205,342.54C610.456,342.065 612.085,341.986 613.251,343.199C614.424,344.424 614.819,345.894 614.395,347.523C613.925,349.324 612.308,350.293 610.195,350.141" style="fill:rgb(70,142,171);"/>
        </g>
    </g>
</svg>
